# xmcd CD database file
#
# Track frame offsets:
#	150
#	18526
#	30601
#	52329
#	60000
#	78601
#	94362
#	104094
#	128655
#	134634
#
# Disc length: 2007 seconds
#
# Revision: 0
# Processed by: cddbd v1.5.2PL0 Copyright (c) Steve Scherf et al.
# Submitted via: CDex 1.51
#
DISCID=8d07d50a
DTITLE=Robert Farrell - Elegant Chaos
DYEAR=2004
DGENRE=Blues
TTITLE0=Unleashed
TTITLE1=Tongareva
TTITLE2=Session
TTITLE3=Mudslide
TTITLE4=Bigfoot
TTITLE5=Manhattan Sunburst
TTITLE6=Bocche di Cattaro
TTITLE7=Unspoken Lament
TTITLE8=Veranda
TTITLE9=Razorback
EXTD=YEAR: 2004
EXTT0=
EXTT1=
EXTT2=
EXTT3=
EXTT4=
EXTT5=
EXTT6=
EXTT7=
EXTT8=
EXTT9=
PLAYORDER=
